<svg width="512" height="512" fill="none" xmlns="http://www.w3.org/2000/svg"><path d="M256 0C115.3 0 0 115.3 0 256s115.3 256 256 256 256-115.3 256-256S396.7 0 256 0z" fill="#083C6E"/><path d="M512 256c0 140.7-115.3 256-256 256V0c140.7 0 256 115.3 256 256z" fill="#083C6E"/><path d="M298.299 256l84.901 84.901-42.299 42.299L256 298.299 171.099 383.2 128.8 340.901 213.701 256 128.8 171.099l42.299-42.299L256 213.701l84.901-84.901 42.299 42.299L298.299 256z" fill="#E7E7E7"/><path d="M298.299 256l84.901 84.901-42.299 42.299L256 298.299v-84.598l84.901-84.901 42.299 42.299L298.299 256z" fill="#D3D3D8"/></svg>