<svg width="25" height="24" fill="none" xmlns="http://www.w3.org/2000/svg"><path d="M-90.484 7.125c.937-.703 1.78-1.547 2.437-2.531a9.225 9.225 0 01-2.812.75 4.809 4.809 0 002.156-2.719c-.938.563-2.016.984-3.094 1.219a4.922 4.922 0 00-3.61-1.547 4.921 4.921 0 00-4.921 4.922c0 .375.047.75.14 1.125a14.278 14.278 0 01-10.171-5.156c-.422.703-.657 1.546-.657 2.484 0 1.687.844 3.187 2.204 4.078-.797-.047-1.594-.234-2.25-.61v.047a4.928 4.928 0 003.937 4.829c-.375.093-.844.187-1.266.187-.328 0-.609-.047-.937-.094.609 1.97 2.437 3.375 4.594 3.422a9.896 9.896 0 01-6.094 2.11c-.422 0-.797-.047-1.172-.094 2.156 1.406 4.734 2.203 7.547 2.203 9.047 0 13.969-7.453 13.969-13.969v-.656zm53.062 6.375l.656-4.313h-4.172V6.376c0-1.219.563-2.344 2.438-2.344h1.922V.328S-38.312 0-39.953 0c-3.422 0-5.672 2.11-5.672 5.86v3.327h-3.844V13.5h3.844V24h4.688V13.5h3.515zM12.5 6.61c-3 0-5.391 2.437-5.391 5.39 0 3 2.391 5.39 5.391 5.39A5.392 5.392 0 0017.891 12c0-2.953-2.438-5.39-5.391-5.39zm0 8.906A3.511 3.511 0 018.984 12c0-1.922 1.547-3.469 3.516-3.469A3.461 3.461 0 0115.969 12c0 1.969-1.547 3.516-3.469 3.516zm6.844-9.094a1.26 1.26 0 00-1.266-1.266 1.26 1.26 0 00-1.266 1.266 1.26 1.26 0 001.266 1.266 1.26 1.26 0 001.266-1.266zm3.562 1.266C22.812 6 22.438 4.5 21.219 3.28 20 2.062 18.5 1.687 16.812 1.594c-1.734-.094-6.937-.094-8.671 0C6.453 1.687 5 2.062 3.734 3.28 2.516 4.5 2.141 6 2.047 7.687c-.094 1.735-.094 6.938 0 8.672.094 1.688.469 3.141 1.687 4.407C5 21.984 6.453 22.359 8.141 22.453c1.734.094 6.937.094 8.671 0 1.688-.094 3.188-.469 4.407-1.687 1.219-1.266 1.593-2.72 1.687-4.407.094-1.734.094-6.937 0-8.672zm-2.25 10.5c-.328.937-1.078 1.64-1.968 2.015-1.407.563-4.688.422-6.188.422-1.547 0-4.828.14-6.188-.422a3.554 3.554 0 01-2.015-2.015c-.563-1.36-.422-4.641-.422-6.188 0-1.5-.141-4.781.422-6.188a3.616 3.616 0 012.015-1.968c1.36-.563 4.641-.422 6.188-.422 1.5 0 4.781-.14 6.188.422.89.328 1.593 1.078 1.968 1.969.563 1.406.422 4.687.422 6.187 0 1.547.141 4.828-.422 6.188zM83.75 12C83.75 5.578 78.547.375 72.125.375S60.5 5.578 60.5 12c0 4.969 3.047 9.14 7.359 10.828-.093-.89-.187-2.297.047-3.328.235-.89 1.36-5.766 1.36-5.766s-.328-.703-.328-1.734c0-1.594.937-2.813 2.109-2.813.984 0 1.453.75 1.453 1.641 0 .985-.656 2.485-.984 3.89-.235 1.126.609 2.063 1.734 2.063 2.062 0 3.656-2.156 3.656-5.297 0-2.812-2.015-4.734-4.828-4.734-3.328 0-5.25 2.484-5.25 5.016 0 1.03.375 2.109.844 2.671.094.094.094.235.094.329-.094.375-.328 1.171-.328 1.312-.047.235-.188.281-.422.188-1.454-.703-2.344-2.813-2.344-4.547 0-3.656 2.672-7.031 7.687-7.031 4.032 0 7.172 2.906 7.172 6.75 0 3.984-2.531 7.218-6.047 7.218-1.172 0-2.296-.61-2.672-1.36 0 0-.562 2.25-.703 2.767-.281 1.03-.984 2.296-1.453 3.046 1.078.375 2.25.516 3.469.516 6.422 0 11.625-5.203 11.625-11.625z" fill="#fff"/></svg>