<svg width="38" height="24" fill="none" xmlns="http://www.w3.org/2000/svg"><path d="M34.387 0H3.228l-.324.006a4.64 4.64 0 00-.705.062 2.38 2.38 0 00-.67.22 2.25 2.25 0 00-.985.986 2.37 2.37 0 00-.22.67 4.66 4.66 0 00-.063.705 15.91 15.91 0 00-.005.324v18.054c0 .108.002.216.005.324.006.235.02.472.062.705.04.233.114.459.22.67a2.24 2.24 0 00.986.985c.215.11.434.18.67.222.233.041.47.055.705.061a19.433 19.433 0 00.709.006h30.774l.385-.001c.107 0 .215-.002.324-.005a4.77 4.77 0 00.705-.061c.233-.04.459-.115.67-.222.424-.216.769-.56.985-.985.11-.214.179-.434.22-.67.043-.233.056-.47.063-.705.003-.108.004-.216.005-.324V2.973c0-.108-.003-.216-.005-.324a4.67 4.67 0 00-.063-.705 2.354 2.354 0 00-.22-.67 2.252 2.252 0 00-.985-.985 2.384 2.384 0 00-.67-.221 4.697 4.697 0 00-.705-.062A16.167 16.167 0 0034.772 0h-.385z" fill="#000"/><path d="M34.387.8h.379c.102.001.205.002.308.005.18.005.39.015.585.05.17.03.312.077.45.147.273.139.495.361.634.635.07.136.116.278.146.45.035.193.045.403.05.584.003.102.004.204.004.308l.001.378v17.666c0 .102-.002.204-.005.306a4 4 0 01-.05.587 1.555 1.555 0 01-.146.447 1.45 1.45 0 01-.636.636c-.136.07-.278.116-.447.146-.2.035-.418.045-.582.05l-.313.004H3.232c-.102 0-.204-.002-.306-.004a4.078 4.078 0 01-.585-.05 1.572 1.572 0 01-.45-.147 1.438 1.438 0 01-.634-.635 1.57 1.57 0 01-.146-.45 3.911 3.911 0 01-.05-.584 14.956 14.956 0 01-.005-.306V2.978c0-.103.002-.205.005-.307.005-.18.014-.39.05-.586.026-.156.075-.308.146-.449a1.44 1.44 0 01.635-.635c.141-.07.293-.12.449-.146.196-.035.406-.045.585-.05.103-.003.205-.004.307-.005h31.154z" fill="#fff"/><path d="M10.11 8.102c.318-.398.533-.932.476-1.477-.465.023-1.032.307-1.361.705-.295.34-.556.897-.488 1.419.522.045 1.044-.26 1.373-.647zm.47.749c-.758-.045-1.403.43-1.765.43-.362 0-.917-.407-1.517-.396a2.237 2.237 0 00-1.901 1.155c-.815 1.404-.215 3.488.577 4.632.385.566.849 1.189 1.46 1.166.578-.022.804-.373 1.505-.373.702 0 .906.373 1.517.362.634-.011 1.03-.566 1.415-1.132.442-.646.622-1.269.633-1.303-.01-.011-1.222-.476-1.233-1.868-.011-1.167.95-1.722.996-1.756-.543-.804-1.392-.894-1.687-.917m7.562-1.578c1.649 0 2.797 1.136 2.797 2.79 0 1.66-1.172 2.803-2.838 2.803h-1.825v2.903h-1.319V7.273h3.185zm-1.866 4.486h1.513c1.148 0 1.801-.618 1.801-1.69 0-1.07-.653-1.683-1.795-1.683h-1.52v3.373zm4.99 2.249c0-1.09.83-1.713 2.36-1.807l1.643-.1v-.472c0-.688-.453-1.065-1.26-1.065-.665 0-1.148.341-1.248.865h-1.19c.036-1.1 1.072-1.901 2.474-1.901 1.507 0 2.49.789 2.49 2.013v4.227h-1.219V14.75h-.03c-.347.665-1.112 1.083-1.942 1.083-1.225 0-2.078-.73-2.078-1.825zm4.003-.547v-.477l-1.466.094c-.824.053-1.254.359-1.254.895 0 .518.448.853 1.148.853.895 0 1.572-.57 1.572-1.365zm2.386 4.579v-1.017c.083.011.283.023.389.023.582 0 .912-.247 1.112-.883l.118-.377-2.231-6.182h1.377l1.555 5.016h.03l1.553-5.016h1.343l-2.314 6.494c-.53 1.49-1.136 1.978-2.42 1.978-.1 0-.424-.011-.512-.035z" fill="#000"/></svg>