<svg width="154" height="138" fill="none" xmlns="http://www.w3.org/2000/svg"><g clip-path="url(#clip0)"><path fill="#fff" d="M0-2046h1600v5051H0z"/><path d="M71.107 362.637c-2.772.501-4.79.096-6.055-1.217-1.453-1.132-2.436-2.716-2.951-4.751-.695-2.223-1.016-4.808-.961-7.753.235-2.759-1.236-7.851-4.413-15.277-2.997-7.238-6.984-15.692-11.961-25.361-4.971-10.038-10.668-20.642-17.09-31.811A1272.999 1272.999 0 008.947 243.52C2.7 232.907-3.199 223.22-8.746 214.461c-5.547-8.759-10.023-15.657-13.429-20.692a7817.2 7817.2 0 01-13.44-20.141A1916.077 1916.077 0 00-50.68 151.8c-5.922-8.397-12.66-17.455-20.215-27.172l12.745-31.81c1.743-4.572 4.354-6.365 7.835-5.38 3.3.798 7.547 5.205 12.74 13.221 2.69 3.918 6.988 10.443 12.897 19.578 5.727 8.946 11.987 19.008 18.778 30.184a1543.027 1543.027 0 0120.645 33.811c6.972 11.364 12.95 21.696 17.934 30.998a75750.71 75750.71 0 0116.569 30.143c10.504 19.533 24.74 46.319 42.71 80.356 6.963 1.971 14.007-.477 21.133-7.343 7.876-7.589 14.08-19.354 18.612-35.293 4.719-16.119 6.172-34.878 4.359-56.276-1.813-21.398-7.736-44.622-17.769-69.671-10.027-25.418-25.757-51.126-47.191-77.124-11.711-14.03-23.48-24.93-35.308-32.701-11.827-7.77-23.337-12.773-34.53-15.007-11.006-2.414-21.51-2.056-31.514 1.073-9.816 2.95-18.755 8.309-26.82 16.078-18.94 18.25-30.947 45.01-36.021 80.276l-23.903-21.991c-.365-10.137 1.192-19.593 4.67-28.369 3.485-9.144 7.224-17.086 11.216-23.826A118.197 118.197 0 01-84.409 34.04c12.002-11.564 25.793-20.333 41.375-26.306C-27.446 1.393-11.103-.974 5.996.632 23.282 2.058 40.948 7.82 58.993 17.915c17.866 9.909 35.267 24.965 52.205 45.17 9.73 11.6 18.411 25.113 26.045 40.541 7.64 15.06 13.88 31.107 18.721 48.141 5.028 16.853 8.389 34.228 10.083 52.124 1.694 17.896 1.373 35.203-.963 51.919-2.155 16.904-6.593 32.753-13.314 47.546-6.54 14.981-15.623 28.073-27.25 39.276-3.743 3.246-8.22 6.294-13.43 9.144-4.466 2.496-10.034 4.787-16.703 6.873-6.67 2.086-14.43 3.416-23.28 3.988z" fill="#E0EDFF"/></g><defs><clipPath id="clip0"><path fill="#fff" transform="translate(0 -2046)" d="M0 0h1600v5051H0z"/></clipPath></defs></svg>