<svg width="148" height="119" fill="none" xmlns="http://www.w3.org/2000/svg"><g clip-path="url(#clip0)"><path fill="#fff" d="M-1452-2631H148v5051h-1600z"/><path d="M263.274 82.634c1.828-2.144 2.493-4.092 1.995-5.846-.248-1.824-1.122-3.471-2.622-4.94-1.571-1.72-3.643-3.297-6.216-4.732-2.502-1.184-6.163-5.017-10.982-11.5-4.748-6.231-10.047-13.93-15.899-23.097-6.174-9.346-12.471-19.604-18.892-30.775a1271.617 1271.617 0 01-19.05-32.76c-6.029-10.742-11.432-20.712-16.211-29.913-4.779-9.2-8.487-16.54-11.126-22.017a7749.5 7749.5 0 00-10.643-21.747 1900.764 1900.764 0 01-11.284-24.003c-4.278-9.343-8.715-19.723-13.311-31.142l-33.903-4.99c-4.828-.794-7.692.561-8.592 4.065-.97 3.253.701 9.14 5.016 17.661 2.032 4.295 5.509 11.294 10.43 20.996 4.85 9.451 10.396 19.923 16.638 31.415a1540.731 1540.731 0 0018.832 34.853c6.313 11.743 12.234 22.108 17.765 31.095 5.137 8.558 11.042 18.386 17.713 29.486 11.596 18.905 27.581 44.686 47.954 77.34-1.799 7.01-7.459 11.865-16.978 14.569-10.522 2.988-23.81 2.43-39.864-1.673-16.306-4.032-33.248-12.215-50.828-24.548-17.58-12.333-34.67-29.136-51.27-50.41C45.025-1.434 30.723-27.962 19.04-59.567c-6.233-17.18-9.732-32.836-10.497-46.966-.764-14.131.704-26.595 4.406-37.392 3.45-10.726 9.045-19.624 16.783-26.694 7.487-7 16.617-12.029 27.388-15.088 25.302-7.186 54.468-4.099 87.5 9.26l-6.979-31.722c-8.577-5.415-17.532-8.828-26.866-10.238-9.656-1.589-18.4-2.354-26.235-2.295a118.244 118.244 0 00-26.994 3.606c-16.033 4.554-30.55 12.061-43.551 22.521-13.325 10.282-23.592 23.215-30.807 38.8-7.465 15.655-11.375 33.821-11.73 54.496-.425 20.425 3.832 43.039 12.77 67.842C-10.641-19.192-3.331-4.89 6.16 9.47c9.171 14.18 19.899 27.647 32.184 40.4 12.035 12.826 25.359 24.473 39.973 34.94 14.613 10.469 29.731 18.899 45.353 25.291 15.693 6.642 31.623 10.781 47.788 12.417 16.238 1.885 32.122.623 47.653-3.788 4.689-1.603 9.575-3.938 14.66-7.006 4.404-2.605 9.185-6.264 14.343-10.977 5.159-4.714 10.212-10.751 15.16-18.112z" fill="#E0EDFF"/><path opacity=".5" fill="#152242" d="M-1452.06-446.836h1600v447h-1600z"/></g><defs><clipPath id="clip0"><path fill="#fff" transform="translate(-1452 -2631)" d="M0 0h1600v5051H0z"/></clipPath></defs></svg>