<svg width="40" height="40" viewBox="0 0 40 40" fill="none" xmlns="http://www.w3.org/2000/svg">
<circle cx="20" cy="20" r="20" fill="#FF6767"/>
<path d="M26.5 13H22.75L22.4375 12.4375C22.3125 12.1875 22.0625 12 21.7812 12H18.1875C17.9062 12 17.6562 12.1875 17.5312 12.4375L17.25 13H13.5C13.2188 13 13 13.25 13 13.5V14.5C13 14.7812 13.2188 15 13.5 15H26.5C26.75 15 27 14.7812 27 14.5V13.5C27 13.25 26.75 13 26.5 13ZM14.6562 26.5938C14.6875 27.4062 15.3438 28 16.1562 28H23.8125C24.625 28 25.2812 27.4062 25.3125 26.5938L26 16H14L14.6562 26.5938Z" fill="white"/>
</svg>
