<svg xmlns="http://www.w3.org/2000/svg" viewBox="0 0 464 464"><circle cx="232" cy="232" r="232" fill="#f8cf26"/><circle cx="232" cy="232" r="152" fill="#ff931e"/><g fill="#f2f2f2"><path d="M292 384a27.632 27.632 0 01-20.624-9.088 25.335 25.335 0 01-6.4-19.696l5.752-128.6a41.385 41.385 0 01-21.312-28.84 94.952 94.952 0 012.648-44l5.136-16.904c6.524-19.202 27.379-29.479 46.581-22.955a36.72 36.72 0 0122.955 22.955l5.136 16.904a94.952 94.952 0 012.648 44 41.376 41.376 0 01-21.304 28.84L319 355.752a24.993 24.993 0 01-6.4 19.16A27.632 27.632 0 01292 384zm0-256a20.079 20.079 0 00-19.456 13.552l-5.136 16.912a78.89 78.89 0 00-2.2 36.528 25.366 25.366 0 0016.6 19.112 7.999 7.999 0 015.176 7.848l-6.032 134.52a9.602 9.602 0 002.352 7.776c4.817 4.769 12.575 4.769 17.392 0a9.255 9.255 0 002.4-7.248l-6.08-135.048a7.999 7.999 0 015.176-7.848 25.366 25.366 0 0016.6-19.112 78.984 78.984 0 00-2.192-36.528l-5.136-16.912A20.08 20.08 0 00292 128zM172 384c-14.934-.008-27.033-12.121-27.025-27.055 0-.441.011-.881.033-1.321l6.824-136.472-21.488-21.496A8 8 0 01128 192v-72a8 8 0 0116 0v68.688l21.656 21.656A8.002 8.002 0 01168 216.4l-7 140a10.898 10.898 0 003.024 8.152c4.379 4.418 11.511 4.45 15.93.07l.07-.07a10.898 10.898 0 003.024-8.152L176 216.4a8.002 8.002 0 012.336-6.056L200 188.688V120a8 8 0 0116 0v72a8 8 0 01-2.344 5.656l-21.488 21.496 6.824 136.472c.738 14.916-10.755 27.605-25.671 28.343-.44.022-.88.033-1.321.033z"/><path d="M160 192a8 8 0 01-8-8v-64a8 8 0 0116 0v64a8 8 0 01-8 8zm24 0a8 8 0 01-8-8v-64a8 8 0 0116 0v64a8 8 0 01-8 8z"/></g></svg>