<svg width="23" height="20" fill="none" xmlns="http://www.w3.org/2000/svg"><path d="M20.625 11.797l1.836-8.125c.117-.586-.313-1.172-.938-1.172H6.211L5.859.781C5.742.351 5.352 0 4.922 0H.938A.925.925 0 000 .938v.625c0 .546.39.937.938.937h2.695l2.773 13.438a2.183 2.183 0 00-1.093 1.874C5.313 19.023 6.288 20 7.5 20c1.172 0 2.188-.977 2.188-2.188 0-.585-.274-1.132-.665-1.562h8.165c-.391.43-.625.977-.625 1.563 0 1.21.976 2.187 2.187 2.187 1.172 0 2.188-.977 2.188-2.188 0-.859-.508-1.601-1.25-1.953l.195-.937c.156-.586-.313-1.172-.899-1.172H8.516l-.274-1.25h11.445c.43 0 .82-.273.938-.703z" fill="#1B130E"/></svg>