<svg width="20" height="16" fill="none" xmlns="http://www.w3.org/2000/svg"><path d="M3 14.5v1c0 .281.219.5.5.5h7c.25 0 .5-.219.5-.5V4.812c.125-.062.25-.156.375-.218l4.469 1.468a.477.477 0 00.625-.312l.312-.938c.094-.28-.062-.562-.312-.625l-4.032-1.343c.032-.125.063-.219.063-.344C12.5 1.125 11.375 0 10 0c-.937 0-1.75.531-2.187 1.281L4.125.031A.531.531 0 003.5.344l-.312.969c-.094.25.062.53.312.625l4.125 1.375a2.464 2.464 0 001.344 1.5V14H3.5c-.281 0-.5.25-.5.5zm-3-5C0 10.906 1.781 12 4 12c2.188 0 4-1.094 4-2.5h-.03c0-.469.094-.219-2.656-5.656-.532-1.094-2.125-1.094-2.657 0C-.062 9.25 0 9 0 9.5zM1.75 9L4 4.5 6.25 9h-4.5zM12 13.5c0 1.406 1.781 2.5 4 2.5 2.188 0 4-1.094 4-2.5h-.031c0-.469.093-.219-2.657-5.656-.53-1.094-2.125-1.094-2.656 0C11.937 13.25 12 13 12 13.5zm1.75-.5L16 8.5l2.25 4.5h-4.5z" fill="#1B130E"/></svg>