<svg width="38" height="36" viewBox="0 0 38 36" fill="none" xmlns="http://www.w3.org/2000/svg">
<path d="M0.569263 16.7764L20.0745 0.197191C20.2243 0.0707862 20.4153 0 20.6166 0H25.1858C25.5678 0 25.7434 0.465169 25.4543 0.707865L7.37391 16.0787H37.587C37.8141 16.0787 38 16.2607 38 16.4831V19.5169C38 19.7393 37.8141 19.9213 37.587 19.9213H7.37908L25.4594 35.2921C25.7485 35.5399 25.573 36 25.1909 36H20.4669C20.3688 36 20.2707 35.9646 20.1985 35.8989L0.569263 19.2236C0.390533 19.0714 0.247227 18.8834 0.149021 18.6723C0.0508156 18.4612 0 18.232 0 18C0 17.768 0.0508156 17.5388 0.149021 17.3277C0.247227 17.1166 0.390533 16.9286 0.569263 16.7764Z" fill="white"/>
</svg>
