<svg width="27" height="14" viewBox="0 0 27 14" fill="none" xmlns="http://www.w3.org/2000/svg">
<path d="M14.7981 0.502349C15.1008 0.214089 15.5038 0.0547278 15.9218 0.0578909C16.3398 0.061054 16.7403 0.226495 17.0387 0.519303C17.3371 0.812111 17.51 1.20938 17.5211 1.62729C17.5321 2.0452 17.3804 2.45106 17.0979 2.75923L8.52178 13.4848C8.37431 13.6436 8.19633 13.7711 7.99847 13.8596C7.80061 13.948 7.58694 13.9957 7.37024 13.9997C7.15353 14.0037 6.93825 13.964 6.73725 13.8829C6.53625 13.8018 6.35367 13.681 6.20042 13.5278L0.513081 7.84043C0.354698 7.69285 0.227664 7.51487 0.139555 7.31713C0.0514467 7.11939 0.00406992 6.90592 0.000250881 6.68947C-0.00356815 6.47302 0.0362489 6.25801 0.117327 6.05728C0.198405 5.85656 0.319082 5.67421 0.472161 5.52114C0.625239 5.36806 0.807581 5.24738 1.00831 5.1663C1.20904 5.08522 1.42404 5.04541 1.64049 5.04922C1.85695 5.05304 2.07041 5.10042 2.26816 5.18853C2.4659 5.27664 2.64387 5.40367 2.79146 5.56206L7.29232 10.0608L14.7551 0.549636C14.7684 0.533042 14.7828 0.517251 14.7981 0.502349ZM12.8206 11.5503L14.7981 13.5278C14.9513 13.6807 15.1337 13.8012 15.3345 13.8821C15.5353 13.963 15.7503 14.0026 15.9668 13.9986C16.1832 13.9946 16.3966 13.947 16.5943 13.8588C16.792 13.7705 16.9698 13.6433 17.1173 13.4848L25.6977 2.75923C25.8518 2.60705 25.9737 2.42538 26.0561 2.22505C26.1385 2.02472 26.1796 1.80985 26.1771 1.59326C26.1746 1.37668 26.1284 1.16282 26.0414 0.964468C25.9544 0.766114 25.8283 0.587329 25.6706 0.438789C25.513 0.29025 25.327 0.175002 25.1239 0.0999279C24.9207 0.0248542 24.7045 -0.00850602 24.4881 0.00184019C24.2718 0.0121864 24.0597 0.0660272 23.8646 0.160146C23.6696 0.254265 23.4954 0.386731 23.3527 0.549636L15.8878 10.0608L14.8453 9.01615L12.8184 11.5503H12.8206Z" fill="white"/>
</svg>
