<svg width="33" height="33" viewBox="0 0 33 33" fill="none" xmlns="http://www.w3.org/2000/svg">
<path d="M16.5 33C14.2656 33 12.1279 32.5649 10.0869 31.6948C8.0459 30.8247 6.28955 29.6538 4.81787 28.1821C3.34619 26.7104 2.17529 24.9541 1.30518 22.9131C0.435059 20.8721 0 18.7344 0 16.5C0 14.2656 0.435059 12.1279 1.30518 10.0869C2.17529 8.0459 3.34619 6.28955 4.81787 4.81787C6.28955 3.34619 8.0459 2.17529 10.0869 1.30518C12.1279 0.435059 14.2656 0 16.5 0C18.7344 0 20.8721 0.435059 22.9131 1.30518C24.9541 2.17529 26.7104 3.34619 28.1821 4.81787C29.6538 6.28955 30.8247 8.0459 31.6948 10.0869C32.5649 12.1279 33 14.2656 33 16.5C33 18.7344 32.5649 20.8721 31.6948 22.9131C30.8247 24.9541 29.6538 26.7104 28.1821 28.1821C26.7104 29.6538 24.9541 30.8247 22.9131 31.6948C20.8721 32.5649 18.7344 33 16.5 33ZM24.75 10.3125C24.75 9.75391 24.5513 9.27051 24.1538 8.8623C23.7563 8.4541 23.2676 8.25 22.6875 8.25H10.3125C9.75391 8.25 9.27051 8.4541 8.8623 8.8623C8.4541 9.27051 8.25 9.75391 8.25 10.3125V12.375H11.9238C13.1699 11 14.6953 10.3125 16.5 10.3125C18.3047 10.3125 19.8301 11 21.0762 12.375H24.75V10.3125ZM12.375 16.5C12.375 17.6387 12.7778 18.6108 13.5835 19.4165C14.3892 20.2222 15.3613 20.625 16.5 20.625C17.6387 20.625 18.6108 20.2222 19.4165 19.4165C20.2222 18.6108 20.625 17.6387 20.625 16.5C20.625 15.3613 20.2222 14.3892 19.4165 13.5835C18.6108 12.7778 17.6387 12.375 16.5 12.375C15.3613 12.375 14.3892 12.7778 13.5835 13.5835C12.7778 14.3892 12.375 15.3613 12.375 16.5ZM24.75 14.4375H22.3008C22.5586 15.1465 22.6875 15.834 22.6875 16.5C22.6875 18.2188 22.0859 19.6797 20.8828 20.8828C19.6797 22.0859 18.2188 22.6875 16.5 22.6875C14.7812 22.6875 13.3203 22.0859 12.1172 20.8828C10.9141 19.6797 10.3125 18.2188 10.3125 16.5C10.3125 15.834 10.4414 15.1465 10.6992 14.4375H8.25V22.6875C8.25 23.2676 8.44873 23.7563 8.84619 24.1538C9.24365 24.5513 9.73242 24.75 10.3125 24.75H22.6875C23.2676 24.75 23.7563 24.5513 24.1538 24.1538C24.5513 23.7563 24.75 23.2676 24.75 22.6875V14.4375Z" fill="#F1D44B"/>
</svg>
