<svg width="33" height="33" viewBox="0 0 33 33" fill="none" xmlns="http://www.w3.org/2000/svg">
<path d="M16.5 0C26.3025 0.183315 32.936 7.70069 33 16.5C32.8247 25.8754 25.2993 32.936 16.5 33C14.8722 32.9937 13.283 32.7403 11.8315 32.3229C12.1403 31.824 12.4492 31.2716 12.758 30.6658C13.4095 29.3416 13.7069 27.9234 14.041 26.5675C14.1835 25.9854 14.3855 25.2192 14.6468 24.2689C14.9319 24.8153 15.4486 25.2905 16.197 25.6944C18.1505 26.6448 20.5706 26.3309 22.3088 25.4449C24.7474 24.0598 26.1764 21.9084 26.9416 19.4936C28.4151 13.8934 26.5151 8.509 21.4357 6.34342C15.311 4.49861 8.47575 6.801 6.09389 12.277C5.05395 15.9365 5.1155 20.635 8.73103 22.1663C8.92119 22.2376 9.09343 22.2376 9.24776 22.1663C9.58711 21.9724 9.98066 20.2921 9.90707 19.939C9.88331 19.8321 9.80015 19.6836 9.65761 19.4936C7.65938 16.7884 8.87719 12.7626 10.7445 10.7446C13.9199 8.01719 18.8619 7.57433 21.7742 10.1744C24.3574 13.188 23.7707 17.878 22.1128 20.8656C21.1967 22.3266 19.9678 23.4306 18.3174 23.4493C16.5802 23.4108 15.27 21.9408 15.7159 20.2776C16.0948 18.3257 17.1463 16.2556 17.177 14.4331C17.0931 12.9172 16.334 11.9558 14.9318 11.9385C12.6937 12.2207 11.7902 14.3133 11.7601 16.215C11.8317 17.1288 11.8871 18.0589 12.2947 18.8165C11.8195 20.7409 11.4512 22.2911 11.1899 23.4672C10.7893 25.5537 10.0038 27.736 9.88916 29.7571C9.85352 30.4223 9.84756 31.04 9.87135 31.6103C3.75754 28.7107 0.036135 23.0472 0 16.5C0.17809 6.97694 7.70069 0.0639925 16.5 0Z" fill="#F1D44B"/>
</svg>
