<svg width="44" height="44" viewBox="0 0 44 44" fill="none" xmlns="http://www.w3.org/2000/svg">
<circle cx="22" cy="22" r="22" fill="#F1D44B"/>
<path d="M24.428 26.0054L25.572 28.4654C25.572 28.4654 30.7147 29.5574 30.7147 32.1547C30.7147 34 28.4267 34 28.4267 34H22.3334L19.3334 32.3334" stroke="white" stroke-width="1.5" stroke-linecap="round" stroke-linejoin="round"/>
<path d="M17.5719 26.0054L16.4293 28.4654C16.4293 28.4654 11.2853 29.5574 11.2853 32.1547C11.2853 34 13.5733 34 13.5733 34H16.3333L19.3333 32.3334L22.9999 30" stroke="white" stroke-width="1.5" stroke-linecap="round" stroke-linejoin="round"/>
<path d="M9 27.2345C9 27.2345 11.8573 26.6199 13.572 26.0052C15.2853 17.3945 20.4267 18.0092 21 18.0092C21.572 18.0092 26.7147 17.3945 28.428 26.0052C30.1427 26.6185 33 27.2345 33 27.2345" stroke="white" stroke-width="1.5" stroke-linecap="round" stroke-linejoin="round"/>
<path d="M21 15.3333C21.7073 15.3333 22.3856 15.0524 22.8857 14.5523C23.3858 14.0522 23.6667 13.3739 23.6667 12.6667C23.6667 11.9594 23.3858 11.2811 22.8857 10.781C22.3856 10.281 21.7073 10 21 10C20.2928 10 19.6145 10.281 19.1144 10.781C18.6143 11.2811 18.3334 11.9594 18.3334 12.6667C18.3334 13.3739 18.6143 14.0522 19.1144 14.5523C19.6145 15.0524 20.2928 15.3333 21 15.3333Z" stroke="white" stroke-width="1.5" stroke-linecap="round" stroke-linejoin="round"/>
</svg>
