<svg width="38" height="38" viewBox="0 0 38 38" fill="none" xmlns="http://www.w3.org/2000/svg">
<path d="M38 19C38 24.0391 35.9982 28.8718 32.435 32.435C28.8718 35.9982 24.0391 38 19 38C13.9609 38 9.12816 35.9982 5.56497 32.435C2.00178 28.8718 0 24.0391 0 19C0 13.9609 2.00178 9.12816 5.56497 5.56497C9.12816 2.00178 13.9609 0 19 0C24.0391 0 28.8718 2.00178 32.435 5.56497C35.9982 9.12816 38 13.9609 38 19ZM19 8.3125C19 7.99756 18.8749 7.69551 18.6522 7.47281C18.4295 7.25011 18.1274 7.125 17.8125 7.125C17.4975 7.125 17.1955 7.25011 16.9728 7.47281C16.7501 7.69551 16.625 7.99756 16.625 8.3125V21.375C16.6251 21.5843 16.6805 21.7899 16.7856 21.9709C16.8907 22.1519 17.0417 22.3019 17.2235 22.4058L25.536 27.1558C25.8088 27.3032 26.1284 27.3381 26.4266 27.2529C26.7247 27.1678 26.9778 26.9694 27.1316 26.7002C27.2855 26.431 27.3279 26.1123 27.2499 25.8122C27.1718 25.5121 26.9795 25.2544 26.714 25.0942L19 20.6863V8.3125Z" fill="white"/>
</svg>
